<svg height="511pt" viewBox="0 -25 511.99964 511" width="511pt" xmlns="http://www.w3.org/2000/svg"><path d="m506.648438 115.785156c-8.527344-33.441406-26.703126-62.277344-52.5625-83.390625-25.191407-20.566406-56.054688-31.894531-86.894532-31.894531-23.644531 0-46.203125 6.367188-67.042968 18.921875-16.457032 9.917969-31.257813 23.40625-44.191407 40.242187-29.410156-38.332031-68.238281-59.164062-111.183593-59.164062-30.832032 0-61.679688 11.328125-86.867188 31.894531-25.851562 21.113281-44.023438 49.949219-52.550781 83.386719-9.269531 36.363281-11.066407 94.476562 33.046875 164.824219 40.832031 65.113281 111.609375 125.445312 210.371094 179.316406 2.238281 1.21875 4.707031 1.832031 7.179687 1.832031s4.941406-.609375 7.179687-1.832031c98.789063-53.875 169.589844-114.207031 210.4375-179.316406 44.132813-70.347657 42.347657-128.457031 33.078126-164.820313zm-250.695313 313.847656c-117.066406-65.152343-174.996094-129.769531-202.527344-183.507812h41.925781c5.683594 0 10.875-3.210938 13.414063-8.289062l18.714844-37.429688 50.839843 101.683594c2.539063 5.082031 7.734376 8.292968 13.414063 8.292968s10.875-3.210937 13.414063-8.292968l50.839843-101.683594 18.714844 37.429688c2.542969 5.082031 7.734375 8.289062 13.414063 8.289062h113.742187c8.28125 0 14.996094-6.714844 14.996094-14.996094s-6.714844-14.996094-14.996094-14.996094h-104.472656l-27.980469-55.96875c-2.542969-5.082031-7.734375-8.289062-13.417969-8.289062-5.679687 0-10.871093 3.207031-13.410156 8.289062l-50.84375 101.683594-50.839844-101.683594c-2.542969-5.082031-7.734375-8.289062-13.414062-8.289062-5.683594 0-10.875 3.207031-13.414063 8.289062l-27.984375 55.96875h-45.464843c-14.863282-43.457031-10.304688-76.828124-6.195313-92.9375 13.917969-54.578124 59.292969-92.699218 110.351563-92.699218 38.617187 0 73.546874 22.5625 98.351562 63.523437 2.714844 4.488281 7.578125 7.230469 12.824219 7.230469h.003906c5.242187 0 10.109375-2.738281 12.828125-7.226562 24.824219-40.964844 59.773438-63.527344 98.410156-63.527344 51.078125 0 96.472656 38.121094 110.390625 92.699218 9.652344 37.859376 21.808594 170.984376-221.628906 306.4375zm0 0"/></svg>